<svg version="1.1" xmlns="http://www.w3.org/2000/svg" xmlns:xlink="http://www.w3.org/1999/xlink" width="936" height="310"><defs/><g><text fill="#eeeeee" stroke="none" font-family="Arial" font-size="24px" font-style="normal" font-weight="normal" text-decoration="none" x="0" y="0">UNREGISTERED</text><text fill="#eeeeee" stroke="none" font-family="Arial" font-size="24px" font-style="normal" font-weight="normal" text-decoration="none" x="0" y="30">UNREGISTERED</text><text fill="#eeeeee" stroke="none" font-family="Arial" font-size="24px" font-style="normal" font-weight="normal" text-decoration="none" x="0" y="60">UNREGISTERED</text><text fill="#eeeeee" stroke="none" font-family="Arial" font-size="24px" font-style="normal" font-weight="normal" text-decoration="none" x="0" y="90">UNREGISTERED</text><text fill="#eeeeee" stroke="none" font-family="Arial" font-size="24px" font-style="normal" font-weight="normal" text-decoration="none" x="0" y="120">UNREGISTERED</text><text fill="#eeeeee" stroke="none" font-family="Arial" font-size="24px" font-style="normal" font-weight="normal" text-decoration="none" x="0" y="150">UNREGISTERED</text><text fill="#eeeeee" stroke="none" font-family="Arial" font-size="24px" font-style="normal" font-weight="normal" text-decoration="none" x="0" y="180">UNREGISTERED</text><text fill="#eeeeee" stroke="none" font-family="Arial" font-size="24px" font-style="normal" font-weight="normal" text-decoration="none" x="0" y="210">UNREGISTERED</text><text fill="#eeeeee" stroke="none" font-family="Arial" font-size="24px" font-style="normal" font-weight="normal" text-decoration="none" x="0" y="240">UNREGISTERED</text><text fill="#eeeeee" stroke="none" font-family="Arial" font-size="24px" font-style="normal" font-weight="normal" text-decoration="none" x="0" y="270">UNREGISTERED</text><text fill="#eeeeee" stroke="none" font-family="Arial" font-size="24px" font-style="normal" font-weight="normal" text-decoration="none" x="0" y="300">UNREGISTERED</text><text fill="#eeeeee" stroke="none" font-family="Arial" font-size="24px" font-style="normal" font-weight="normal" text-decoration="none" x="200" y="0">UNREGISTERED</text><text fill="#eeeeee" stroke="none" font-family="Arial" font-size="24px" font-style="normal" font-weight="normal" text-decoration="none" x="200" y="30">UNREGISTERED</text><text fill="#eeeeee" stroke="none" font-family="Arial" font-size="24px" font-style="normal" font-weight="normal" text-decoration="none" x="200" y="60">UNREGISTERED</text><text fill="#eeeeee" stroke="none" font-family="Arial" font-size="24px" font-style="normal" font-weight="normal" text-decoration="none" x="200" y="90">UNREGISTERED</text><text fill="#eeeeee" stroke="none" font-family="Arial" font-size="24px" font-style="normal" font-weight="normal" text-decoration="none" x="200" y="120">UNREGISTERED</text><text fill="#eeeeee" stroke="none" font-family="Arial" font-size="24px" font-style="normal" font-weight="normal" text-decoration="none" x="200" y="150">UNREGISTERED</text><text fill="#eeeeee" stroke="none" font-family="Arial" font-size="24px" font-style="normal" font-weight="normal" text-decoration="none" x="200" y="180">UNREGISTERED</text><text fill="#eeeeee" stroke="none" font-family="Arial" font-size="24px" font-style="normal" font-weight="normal" text-decoration="none" x="200" y="210">UNREGISTERED</text><text fill="#eeeeee" stroke="none" font-family="Arial" font-size="24px" font-style="normal" font-weight="normal" text-decoration="none" x="200" y="240">UNREGISTERED</text><text fill="#eeeeee" stroke="none" font-family="Arial" font-size="24px" font-style="normal" font-weight="normal" text-decoration="none" x="200" y="270">UNREGISTERED</text><text fill="#eeeeee" stroke="none" font-family="Arial" font-size="24px" font-style="normal" font-weight="normal" text-decoration="none" x="200" y="300">UNREGISTERED</text><text fill="#eeeeee" stroke="none" font-family="Arial" font-size="24px" font-style="normal" font-weight="normal" text-decoration="none" x="400" y="0">UNREGISTERED</text><text fill="#eeeeee" stroke="none" font-family="Arial" font-size="24px" font-style="normal" font-weight="normal" text-decoration="none" x="400" y="30">UNREGISTERED</text><text fill="#eeeeee" stroke="none" font-family="Arial" font-size="24px" font-style="normal" font-weight="normal" text-decoration="none" x="400" y="60">UNREGISTERED</text><text fill="#eeeeee" stroke="none" font-family="Arial" font-size="24px" font-style="normal" font-weight="normal" text-decoration="none" x="400" y="90">UNREGISTERED</text><text fill="#eeeeee" stroke="none" font-family="Arial" font-size="24px" font-style="normal" font-weight="normal" text-decoration="none" x="400" y="120">UNREGISTERED</text><text fill="#eeeeee" stroke="none" font-family="Arial" font-size="24px" font-style="normal" font-weight="normal" text-decoration="none" x="400" y="150">UNREGISTERED</text><text fill="#eeeeee" stroke="none" font-family="Arial" font-size="24px" font-style="normal" font-weight="normal" text-decoration="none" x="400" y="180">UNREGISTERED</text><text fill="#eeeeee" stroke="none" font-family="Arial" font-size="24px" font-style="normal" font-weight="normal" text-decoration="none" x="400" y="210">UNREGISTERED</text><text fill="#eeeeee" stroke="none" font-family="Arial" font-size="24px" font-style="normal" font-weight="normal" text-decoration="none" x="400" y="240">UNREGISTERED</text><text fill="#eeeeee" stroke="none" font-family="Arial" font-size="24px" font-style="normal" font-weight="normal" text-decoration="none" x="400" y="270">UNREGISTERED</text><text fill="#eeeeee" stroke="none" font-family="Arial" font-size="24px" font-style="normal" font-weight="normal" text-decoration="none" x="400" y="300">UNREGISTERED</text><text fill="#eeeeee" stroke="none" font-family="Arial" font-size="24px" font-style="normal" font-weight="normal" text-decoration="none" x="600" y="0">UNREGISTERED</text><text fill="#eeeeee" stroke="none" font-family="Arial" font-size="24px" font-style="normal" font-weight="normal" text-decoration="none" x="600" y="30">UNREGISTERED</text><text fill="#eeeeee" stroke="none" font-family="Arial" font-size="24px" font-style="normal" font-weight="normal" text-decoration="none" x="600" y="60">UNREGISTERED</text><text fill="#eeeeee" stroke="none" font-family="Arial" font-size="24px" font-style="normal" font-weight="normal" text-decoration="none" x="600" y="90">UNREGISTERED</text><text fill="#eeeeee" stroke="none" font-family="Arial" font-size="24px" font-style="normal" font-weight="normal" text-decoration="none" x="600" y="120">UNREGISTERED</text><text fill="#eeeeee" stroke="none" font-family="Arial" font-size="24px" font-style="normal" font-weight="normal" text-decoration="none" x="600" y="150">UNREGISTERED</text><text fill="#eeeeee" stroke="none" font-family="Arial" font-size="24px" font-style="normal" font-weight="normal" text-decoration="none" x="600" y="180">UNREGISTERED</text><text fill="#eeeeee" stroke="none" font-family="Arial" font-size="24px" font-style="normal" font-weight="normal" text-decoration="none" x="600" y="210">UNREGISTERED</text><text fill="#eeeeee" stroke="none" font-family="Arial" font-size="24px" font-style="normal" font-weight="normal" text-decoration="none" x="600" y="240">UNREGISTERED</text><text fill="#eeeeee" stroke="none" font-family="Arial" font-size="24px" font-style="normal" font-weight="normal" text-decoration="none" x="600" y="270">UNREGISTERED</text><text fill="#eeeeee" stroke="none" font-family="Arial" font-size="24px" font-style="normal" font-weight="normal" text-decoration="none" x="600" y="300">UNREGISTERED</text><text fill="#eeeeee" stroke="none" font-family="Arial" font-size="24px" font-style="normal" font-weight="normal" text-decoration="none" x="800" y="0">UNREGISTERED</text><text fill="#eeeeee" stroke="none" font-family="Arial" font-size="24px" font-style="normal" font-weight="normal" text-decoration="none" x="800" y="30">UNREGISTERED</text><text fill="#eeeeee" stroke="none" font-family="Arial" font-size="24px" font-style="normal" font-weight="normal" text-decoration="none" x="800" y="60">UNREGISTERED</text><text fill="#eeeeee" stroke="none" font-family="Arial" font-size="24px" font-style="normal" font-weight="normal" text-decoration="none" x="800" y="90">UNREGISTERED</text><text fill="#eeeeee" stroke="none" font-family="Arial" font-size="24px" font-style="normal" font-weight="normal" text-decoration="none" x="800" y="120">UNREGISTERED</text><text fill="#eeeeee" stroke="none" font-family="Arial" font-size="24px" font-style="normal" font-weight="normal" text-decoration="none" x="800" y="150">UNREGISTERED</text><text fill="#eeeeee" stroke="none" font-family="Arial" font-size="24px" font-style="normal" font-weight="normal" text-decoration="none" x="800" y="180">UNREGISTERED</text><text fill="#eeeeee" stroke="none" font-family="Arial" font-size="24px" font-style="normal" font-weight="normal" text-decoration="none" x="800" y="210">UNREGISTERED</text><text fill="#eeeeee" stroke="none" font-family="Arial" font-size="24px" font-style="normal" font-weight="normal" text-decoration="none" x="800" y="240">UNREGISTERED</text><text fill="#eeeeee" stroke="none" font-family="Arial" font-size="24px" font-style="normal" font-weight="normal" text-decoration="none" x="800" y="270">UNREGISTERED</text><text fill="#eeeeee" stroke="none" font-family="Arial" font-size="24px" font-style="normal" font-weight="normal" text-decoration="none" x="800" y="300">UNREGISTERED</text><g transform="translate(-14,-6) scale(1,1)"><path fill="#C0C0C0" stroke="none" d="M 271 64 C 271 54.6111584 324.5019664 47 390.5 47 C 456.4980336 47 510 54.6111584 510 64 C 510 73.3888416 456.4980336 81 390.5 81 C 324.5019664 81 271 73.3888416 271 64 Z" opacity="0.2"/></g><g transform="translate(-14,-6) scale(1,1)"><path fill="#ffffff" stroke="none" d="M 264 57 C 264 47.6111584 317.5019664 40 383.5 40 C 449.4980336 40 503 47.6111584 503 57 C 503 66.3888416 449.4980336 74 383.5 74 C 317.5019664 74 264 66.3888416 264 57 Z"/></g><g transform="translate(-14,-6) scale(1,1)"><path fill="none" stroke="#000000" d="M 264 57 C 264 47.6111584 317.5019664 40 383.5 40 C 449.4980336 40 503 47.6111584 503 57 C 503 66.3888416 449.4980336 74 383.5 74 C 317.5019664 74 264 66.3888416 264 57 Z" stroke-miterlimit="10"/></g><g transform="translate(-14,-6) scale(1,1)"><g><path fill="none" stroke="none"/><text fill="#000000" stroke="none" font-family="Arial" font-size="13px" font-style="normal" font-weight="bold" text-decoration="none" x="307.635986328125" y="64">CU-01: Gestionar Clientes</text></g></g><g transform="translate(-14,-6) scale(1,1)"><path fill="#ffffff" stroke="none" d="M 112.40935031960228 25.68 C 112.40935031960228 20.886167936 116.29519264454774 17 121.088623046875 17 C 125.88205344920226 17 129.76789577414772 20.886167936 129.76789577414772 25.68 C 129.76789577414772 30.473832064 125.88205344920226 34.36 121.088623046875 34.36 C 116.29519264454774 34.36 112.40935031960228 30.473832064 112.40935031960228 25.68 Z"/></g><g transform="translate(-14,-6) scale(1,1)"><path fill="none" stroke="#000000" d="M 112.40935031960228 25.68 C 112.40935031960228 20.886167936 116.29519264454774 17 121.088623046875 17 C 125.88205344920226 17 129.76789577414772 20.886167936 129.76789577414772 25.68 C 129.76789577414772 30.473832064 125.88205344920226 34.36 121.088623046875 34.36 C 116.29519264454774 34.36 112.40935031960228 30.473832064 112.40935031960228 25.68 Z" stroke-miterlimit="10"/></g><g transform="translate(-14,-6) scale(1,1)"><path fill="none" stroke="#000000" d="M 121.088623046875 34.36 L 121.088623046875 51.64" stroke-miterlimit="10"/></g><g transform="translate(-14,-6) scale(1,1)"><path fill="none" stroke="#000000" d="M 111.89880486505683 40.84 L 130.27844122869317 40.84" stroke-miterlimit="10"/></g><g transform="translate(-14,-6) scale(1,1)"><path fill="none" stroke="#000000" d="M 121.088623046875 51.64 L 108.32498668323865 69" stroke-miterlimit="10"/></g><g transform="translate(-14,-6) scale(1,1)"><path fill="none" stroke="#000000" d="M 121.088623046875 51.64 L 133.85225941051135 69" stroke-miterlimit="10"/></g><g transform="translate(-14,-6) scale(1,1)"><g><path fill="none" stroke="none"/><text fill="#000000" stroke="none" font-family="Arial" font-size="13px" font-style="normal" font-weight="bold" text-decoration="none" x="102.66455078125" y="89.5">Admin</text></g></g><g transform="translate(-14,-6) scale(1,1)"><path fill="#C0C0C0" stroke="none" d="M 31 216 C 31 206.6111584 82.26339039999999 199 145.5 199 C 208.7366096 199 260 206.6111584 260 216 C 260 225.3888416 208.7366096 233 145.5 233 C 82.26339039999999 233 31 225.3888416 31 216 Z" opacity="0.2"/></g><g transform="translate(-14,-6) scale(1,1)"><path fill="#ffffff" stroke="none" d="M 24 209 C 24 199.6111584 75.26339039999999 192 138.5 192 C 201.7366096 192 253 199.6111584 253 209 C 253 218.3888416 201.7366096 226 138.5 226 C 75.26339039999999 226 24 218.3888416 24 209 Z"/></g><g transform="translate(-14,-6) scale(1,1)"><path fill="none" stroke="#000000" d="M 24 209 C 24 199.6111584 75.26339039999999 192 138.5 192 C 201.7366096 192 253 199.6111584 253 209 C 253 218.3888416 201.7366096 226 138.5 226 C 75.26339039999999 226 24 218.3888416 24 209 Z" stroke-miterlimit="10"/></g><g transform="translate(-14,-6) scale(1,1)"><g><path fill="none" stroke="none"/><text fill="#000000" stroke="none" font-family="Arial" font-size="13px" font-style="normal" font-weight="bold" text-decoration="none" x="65.892333984375" y="216">CU-02:  Registrar Cliente</text></g></g><g transform="translate(-14,-6) scale(1,1)"><path fill="#C0C0C0" stroke="none" d="M 279 216 C 279 206.6111584 330.7111056 199 394.5 199 C 458.2888944 199 510 206.6111584 510 216 C 510 225.3888416 458.2888944 233 394.5 233 C 330.7111056 233 279 225.3888416 279 216 Z" opacity="0.2"/></g><g transform="translate(-14,-6) scale(1,1)"><path fill="#ffffff" stroke="none" d="M 272 209 C 272 199.6111584 323.7111056 192 387.5 192 C 451.2888944 192 503 199.6111584 503 209 C 503 218.3888416 451.2888944 226 387.5 226 C 323.7111056 226 272 218.3888416 272 209 Z"/></g><g transform="translate(-14,-6) scale(1,1)"><path fill="none" stroke="#000000" d="M 272 209 C 272 199.6111584 323.7111056 192 387.5 192 C 451.2888944 192 503 199.6111584 503 209 C 503 218.3888416 451.2888944 226 387.5 226 C 323.7111056 226 272 218.3888416 272 209 Z" stroke-miterlimit="10"/></g><g transform="translate(-14,-6) scale(1,1)"><g><path fill="none" stroke="none"/><text fill="#000000" stroke="none" font-family="Arial" font-size="13px" font-style="normal" font-weight="bold" text-decoration="none" x="314.52734375" y="216">CU-03: Actualizar Cliente</text></g></g><g transform="translate(-14,-6) scale(1,1)"><path fill="#C0C0C0" stroke="none" d="M 535 216 C 535 206.6111584 586.2633904 199 649.5 199 C 712.7366096 199 764 206.6111584 764 216 C 764 225.3888416 712.7366096 233 649.5 233 C 586.2633904 233 535 225.3888416 535 216 Z" opacity="0.2"/></g><g transform="translate(-14,-6) scale(1,1)"><path fill="#ffffff" stroke="none" d="M 528 209 C 528 199.6111584 579.2633904 192 642.5 192 C 705.7366096 192 757 199.6111584 757 209 C 757 218.3888416 705.7366096 226 642.5 226 C 579.2633904 226 528 218.3888416 528 209 Z"/></g><g transform="translate(-14,-6) scale(1,1)"><path fill="none" stroke="#000000" d="M 528 209 C 528 199.6111584 579.2633904 192 642.5 192 C 705.7366096 192 757 199.6111584 757 209 C 757 218.3888416 705.7366096 226 642.5 226 C 579.2633904 226 528 218.3888416 528 209 Z" stroke-miterlimit="10"/></g><g transform="translate(-14,-6) scale(1,1)"><g><path fill="none" stroke="none"/><text fill="#000000" stroke="none" font-family="Arial" font-size="13px" font-style="normal" font-weight="bold" text-decoration="none" x="570.247802734375" y="216">CU-04: Consultar Cliente</text></g></g><g transform="translate(-14,-6) scale(1,1)"><path fill="none" stroke="#000000" d="M 167 191 L 354 75" stroke-miterlimit="10" stroke-dasharray="3"/></g><g transform="translate(-14,-6) scale(1,1)"><path fill="none" stroke="#000000" d="M 347.5829473614343 83.93428427093505 L 354 75 L 343.14496557101273 76.77995155706569" stroke-miterlimit="10"/></g><g transform="translate(-14,-6) scale(1,1)"><g><path fill="none" stroke="none"/><text fill="#000000" stroke="none" font-family="Arial" font-size="13px" font-style="normal" font-weight="normal" text-decoration="none" x="217.5" y="113.5">«extend»</text></g></g><g transform="translate(-14,-6) scale(1,1)"><path fill="none" stroke="#000000" d="M 387 191 L 383 75" stroke-miterlimit="10" stroke-dasharray="3"/></g><g transform="translate(-14,-6) scale(1,1)"><path fill="none" stroke="#000000" d="M 387.55724620396126 85.01156866012917 L 383 75 L 379.1432116044656 85.30170778424971" stroke-miterlimit="10"/></g><g transform="translate(-14,-6) scale(1,1)"><g><path fill="none" stroke="none"/><text fill="#000000" stroke="none" font-family="Arial" font-size="13px" font-style="normal" font-weight="normal" text-decoration="none" x="328.5" y="140.5">«extend»</text></g></g><g transform="translate(-14,-6) scale(1,1)"><path fill="none" stroke="#000000" d="M 611 191 L 414 75" stroke-miterlimit="10" stroke-dasharray="3"/></g><g transform="translate(-14,-6) scale(1,1)"><path fill="none" stroke="#000000" d="M 424.8931901930724 76.52918521361876 L 414 75 L 420.6213514200363 83.78394588851634" stroke-miterlimit="10"/></g><g transform="translate(-14,-6) scale(1,1)"><g><path fill="none" stroke="none"/><text fill="#000000" stroke="none" font-family="Arial" font-size="13px" font-style="normal" font-weight="normal" text-decoration="none" x="495.5" y="108.5">«extend»</text></g></g><g transform="translate(-14,-6) scale(1,1)"><path fill="none" stroke="#000000" d="M 147 55 L 263 56" stroke-miterlimit="10"/></g><g transform="translate(-14,-6) scale(1,1)"><path fill="#C0C0C0" stroke="none" d="M 439 296 C 439 286.6111584 490.2633904 279 553.5 279 C 616.7366096 279 668 286.6111584 668 296 C 668 305.3888416 616.7366096 313 553.5 313 C 490.2633904 313 439 305.3888416 439 296 Z" opacity="0.2"/></g><g transform="translate(-14,-6) scale(1,1)"><path fill="#ffffff" stroke="none" d="M 432 289 C 432 279.6111584 483.2633904 272 546.5 272 C 609.7366096 272 661 279.6111584 661 289 C 661 298.3888416 609.7366096 306 546.5 306 C 483.2633904 306 432 298.3888416 432 289 Z"/></g><g transform="translate(-14,-6) scale(1,1)"><path fill="none" stroke="#000000" d="M 432 289 C 432 279.6111584 483.2633904 272 546.5 272 C 609.7366096 272 661 279.6111584 661 289 C 661 298.3888416 609.7366096 306 546.5 306 C 483.2633904 306 432 298.3888416 432 289 Z" stroke-miterlimit="10"/></g><g transform="translate(-14,-6) scale(1,1)"><g><path fill="none" stroke="none"/><text fill="#000000" stroke="none" font-family="Arial" font-size="13px" font-style="normal" font-weight="bold" text-decoration="none" x="473.52099609375" y="296">CU-05: Consulta General</text></g></g><g transform="translate(-14,-6) scale(1,1)"><path fill="#C0C0C0" stroke="none" d="M 695 296 C 695 286.6111584 751.4121152 279 821 279 C 890.5878848 279 947 286.6111584 947 296 C 947 305.3888416 890.5878848 313 821 313 C 751.4121152 313 695 305.3888416 695 296 Z" opacity="0.2"/></g><g transform="translate(-14,-6) scale(1,1)"><path fill="#ffffff" stroke="none" d="M 688 289 C 688 279.6111584 744.4121152 272 814 272 C 883.5878848 272 940 279.6111584 940 289 C 940 298.3888416 883.5878848 306 814 306 C 744.4121152 306 688 298.3888416 688 289 Z"/></g><g transform="translate(-14,-6) scale(1,1)"><path fill="none" stroke="#000000" d="M 688 289 C 688 279.6111584 744.4121152 272 814 272 C 883.5878848 272 940 279.6111584 940 289 C 940 298.3888416 883.5878848 306 814 306 C 744.4121152 306 688 298.3888416 688 289 Z" stroke-miterlimit="10"/></g><g transform="translate(-14,-6) scale(1,1)"><g><path fill="none" stroke="none"/><text fill="#000000" stroke="none" font-family="Arial" font-size="13px" font-style="normal" font-weight="bold" text-decoration="none" x="734.52099609375" y="296">CU-06: Consulta Especifica</text></g></g><g transform="translate(-14,-6) scale(1,1)"><path fill="none" stroke="#000000" d="M 568 271 L 620 227" stroke-miterlimit="10" stroke-dasharray="3"/></g><g transform="translate(-14,-6) scale(1,1)"><path fill="none" stroke="#000000" d="M 614.9610587258368 236.77798909978605 L 620 227 L 609.5228480562116 230.3510128538653" stroke-miterlimit="10"/></g><g transform="translate(-14,-6) scale(1,1)"><g><path fill="none" stroke="none"/><text fill="#000000" stroke="none" font-family="Arial" font-size="13px" font-style="normal" font-weight="normal" text-decoration="none" x="534.5" y="252.5">«extend»</text></g></g><g transform="translate(-14,-6) scale(1,1)"><path fill="none" stroke="#000000" d="M 775 271 L 681 227" stroke-miterlimit="10" stroke-dasharray="3"/></g><g transform="translate(-14,-6) scale(1,1)"><path fill="none" stroke="#000000" d="M 691.9888186981403 227.49584636673106 L 681 227 L 688.4196518903424 235.12088454702683" stroke-miterlimit="10"/></g><g transform="translate(-14,-6) scale(1,1)"><g><path fill="none" stroke="none"/><text fill="#000000" stroke="none" font-family="Arial" font-size="13px" font-style="normal" font-weight="normal" text-decoration="none" x="726.5" y="251.5">«extend»</text></g></g></g></svg>